# xmcd CD database file
#
# Track frame offsets:
#	150
#	24870
#	35117
#	52806
#	75310
#	96067
#	126921
#	149556
#	166358
#	196233
#	212445
#	234722
#	254959
#	271998
#
# Disc length: 3875 seconds
#
# Revision: 0
# Processed by: cddbd v1.5.1PL0 Copyright (c) Steve Scherf et al.
# Submitted via: CDex 1.51
#
DISCID=c20f210e
DTITLE=Bradfield - St. Peter's Gate
DYEAR=2005
DGENRE=New Age
TTITLE0=Anticipation
TTITLE1=Preparation
TTITLE2=Threshold
TTITLE3=Transition
TTITLE4=Criterion
TTITLE5=Retrospection
TTITLE6=Awakening
TTITLE7=Realization
TTITLE8=Judgment
TTITLE9=Retribution
TTITLE10=Sanctuary
TTITLE11=Renewal
TTITLE12=Salvation
TTITLE13=Reincarnation
EXTD=YEAR: 2005
EXTT0=
EXTT1=
EXTT2=
EXTT3=
EXTT4=
EXTT5=
EXTT6=
EXTT7=
EXTT8=
EXTT9=
EXTT10=
EXTT11=
EXTT12=
EXTT13=
PLAYORDER=
